# xmcd
#
# Track frame offsets:
#	150
#	13015
#	25279
#	36303
#	47656
#	59755
#	71355
#	81924
#	97367
#	109062
#	121569
#	136278
#	149855
#	160791
#	172796
#	186079
#	203751
#
# Disc length: 2913 seconds
#
# Revision: 0
# Processed by: cddbd v1.5.2PL0 Copyright (c) Steve Scherf et al.
# Submitted via: EasyCDDAExtractor 16.0.6.1
#
DISCID=f10b5f11
DTITLE=Συλλογικός δίσκος - Στο ρυθμό των 70s 1
DYEAR=2011
DGENRE=Ελληνική ποπ
TTITLE0=Νοστράδαμος - Δώσ' μου το χέρι σου [Σ. Φωτιάδης-Ε. Ρουμελιώτη]
TTITLE1=Μαρίνα - Νά 'μουν αητός[B.Bergman-Σ.Βλαβιανός/Χ.Χαλκίτης, Β.Δαλαμάγκα]
TTITLE2=Ρωμανός Γιώργος - Η αγάπη μας κοιμάται στα νερά [Γιώργος Ρωμανός]
TTITLE3=Αστεριάδη Πόπη - Στου Φιλοπάππου [Κ. Ξενάκης-Β. Φωτεινάκης]
TTITLE4=Μαρίνα - Γειά σου, σ' ευχαριστώ [Κ. Ξενάκης-Β. Φωτεινάκης]
TTITLE5=Ρωμανός Γιώργος - Μαρίνα [Γιώργος Ρωμανός]
TTITLE6=Βιτάλη Ελένη - Χωρίς δεκάρα [Γ. Μέτσικας-Β. Τσιμπούλη]
TTITLE7=Μαρίνα - Ατέλειωτα που ξέρεις ν' αγαπιέσαι[Σ.Βλασσόπουλος-Λ.Παπαδόπουλ
TTITLE7=ος]
TTITLE8=Ρωμανός Γιώργος - Όταν μού 'πες [Γιώργος Ρωμανός]
TTITLE9=Ψαριανός Δημήτρης - Το ταμπούρλο [Σ. Φωτιάδης-Ε. Ρουμελιώτη]
TTITLE10=Μαρίνα - Φίλη ήμουν πάντα [Αλέξης Παπαδημητρίου]
TTITLE11=Ρωμανός Γιώργος - Τα παιδιά των λουλουδιών [Γιώργος Ρωμανός]
TTITLE12=Γκαϊφύλλιας Θανάσης - Αραμπάς περνά [Γιώργος Κοντογιώργος]
TTITLE13=Μαρίνα - Πόσο σ' αγαπώ [Γ. Κιουρτσόγλου-Η. Ασβεστόπουλος]
TTITLE14=Μποκιού Πελόμα - Μαρί, Μαρία [Νίκος Δαπέρης]
TTITLE15=Εξαδάκτυλος - Έχουν κακούς σκοπούς[Ν. Δαπέρης-Α.Α.-Α.Τ.-G.L.-Κ.Δ.-Δ.Π
TTITLE15=ουλικάκος]
TTITLE16=Μποκιού Πελόμα - Αν ήξερα [Ν. Δαπέρης-Βλ. Μπονάτσος]
EXTD=
EXTT0=
EXTT1=
EXTT2=
EXTT3=
EXTT4=
EXTT5=
EXTT6=
EXTT7=
EXTT8=
EXTT9=
EXTT10=
EXTT11=
EXTT12=
EXTT13=
EXTT14=
EXTT15=
EXTT16=
PLAYORDER=
